<?xml version="1.0" encoding="UTF-8" standalone="no"?>
<!-- Generator: Adobe Illustrator 17.1.0, SVG Export Plug-In . SVG Version: 6.00 Build 0)  -->

<svg
   version="1.1"
   id="Capa_1"
   x="0px"
   y="0px"
   viewBox="0 0 260.271 465"
   xml:space="preserve"
   sodipodi:docname="scarab_glyph.svg"
   width="260.271"
   height="465"
   inkscape:version="1.3.2 (091e20e, 2023-11-25, custom)"
   xmlns:inkscape="http://www.inkscape.org/namespaces/inkscape"
   xmlns:sodipodi="http://sodipodi.sourceforge.net/DTD/sodipodi-0.dtd"
   xmlns="http://www.w3.org/2000/svg"
   xmlns:svg="http://www.w3.org/2000/svg"><defs
   id="defs18" /><sodipodi:namedview
   id="namedview18"
   pagecolor="#ffffff"
   bordercolor="#666666"
   borderopacity="1.0"
   inkscape:showpageshadow="2"
   inkscape:pageopacity="0.0"
   inkscape:pagecheckerboard="0"
   inkscape:deskcolor="#d1d1d1"
   inkscape:zoom="4.2129032"
   inkscape:cx="130.19525"
   inkscape:cy="232.5"
   inkscape:window-width="3777"
   inkscape:window-height="2137"
   inkscape:window-x="1975"
   inkscape:window-y="-8"
   inkscape:window-maximized="1"
   inkscape:current-layer="Capa_1" />
<g
   id="g3"
   transform="translate(-102.365)">
	<path
   d="m 232.5,117.762 c 32.467,0 58.881,-26.414 58.881,-58.881 C 291.381,26.414 264.967,0 232.5,0 c -32.467,0 -58.881,26.414 -58.881,58.881 0,32.467 26.414,58.881 58.881,58.881 z M 232.5,15 c 24.196,0 43.881,19.685 43.881,43.881 0,24.196 -19.685,43.881 -43.881,43.881 -24.196,0 -43.881,-19.685 -43.881,-43.881 C 188.619,34.685 208.304,15 232.5,15 Z"
   id="path1" />
	<path
   d="m 232.5,426.465 c -10.624,0 -19.268,8.644 -19.268,19.268 0,10.624 8.644,19.267 19.268,19.267 10.624,0 19.268,-8.644 19.268,-19.268 0,-10.624 -8.644,-19.267 -19.268,-19.267 z m 0,23.535 c -2.353,0 -4.268,-1.915 -4.268,-4.268 0,-2.353 1.915,-4.268 4.268,-4.268 2.353,0 4.268,1.915 4.268,4.268 0,2.353 -1.915,4.268 -4.268,4.268 z"
   id="path2" />
	<path
   d="m 355.136,220.749 c 4.142,0 7.5,-3.358 7.5,-7.5 v -31.732 c 0,-39.565 -17.743,-76.533 -48.68,-101.426 -3.227,-2.597 -7.949,-2.085 -10.545,1.142 -2.597,3.227 -2.085,7.948 1.142,10.545 27.38,22.031 43.083,54.74 43.083,89.739 v 24.232 H 319.65 c -3.554,-19.876 -20.956,-35.014 -41.838,-35.014 h -1.007 c -3.581,-21.216 -22.085,-37.431 -44.305,-37.431 -22.219,0 -40.724,16.214 -44.305,37.431 h -1.007 c -20.882,0 -38.283,15.138 -41.838,35.014 h -27.986 v -24.232 c 0,-35 15.703,-67.708 43.083,-89.738 3.227,-2.597 3.738,-7.318 1.142,-10.545 -2.596,-3.226 -7.317,-3.739 -10.545,-1.142 -30.937,24.892 -48.679,61.86 -48.679,101.425 v 31.732 c 0,4.142 3.358,7.5 7.5,7.5 h 34.81 v 58.675 l -30.78,-19.613 c -2.309,-1.471 -5.236,-1.568 -7.637,-0.25 -2.401,1.317 -3.893,3.837 -3.893,6.576 v 26.96 c 0,4.142 3.358,7.5 7.5,7.5 4.142,0 7.5,-3.358 7.5,-7.5 v -13.288 l 27.31,17.402 v 18.386 h -34.81 c -4.142,0 -7.5,3.358 -7.5,7.5 0,54.853 34.746,104.12 86.459,122.596 0.834,0.298 1.686,0.439 2.523,0.439 3.08,0 5.968,-1.912 7.063,-4.979 1.394,-3.901 -0.639,-8.193 -4.54,-9.586 -43.39,-15.501 -73.28,-55.497 -76.261,-100.97 h 27.388 c 3.818,44.93 41.601,80.326 87.502,80.326 45.901,0 83.684,-35.396 87.503,-80.326 h 27.388 c -2.981,45.474 -32.871,85.469 -76.261,100.97 -3.9,1.394 -5.933,5.686 -4.54,9.586 1.096,3.067 3.983,4.979 7.063,4.979 0.837,0 1.689,-0.141 2.523,-0.439 51.714,-18.476 86.459,-67.744 86.459,-122.596 0,-4.142 -3.358,-7.5 -7.5,-7.5 h -34.81 v -18.386 l 27.31,-17.402 v 13.288 c 0,4.142 3.358,7.5 7.5,7.5 4.142,0 7.5,-3.358 7.5,-7.5 v -26.96 c 0,-2.738 -1.492,-5.259 -3.893,-6.576 -2.401,-1.317 -5.329,-1.22 -7.637,0.25 l -30.779,19.613 V 220.75 Z M 187.188,185.735 h 7.881 44.862 c 4.142,0 7.5,-3.358 7.5,-7.5 0,-4.142 -3.358,-7.5 -7.5,-7.5 h -36.41 c 3.337,-12.886 15.064,-22.431 28.979,-22.431 16.504,0 29.931,13.427 29.931,29.931 0,4.142 3.358,7.5 7.5,7.5 h 7.881 c 15.171,0 27.514,12.343 27.514,27.514 0,15.171 -12.343,27.514 -27.514,27.514 h -21.283 c -9.309,0 -17.938,3.917 -24.029,10.426 -6.091,-6.508 -14.72,-10.426 -24.029,-10.426 h -21.283 c -15.171,0 -27.514,-12.343 -27.514,-27.514 0,-15.171 12.343,-27.514 27.514,-27.514 z m -27.514,137.362 v -77.475 c 7.422,6.317 17.027,10.142 27.514,10.142 h 21.283 c 7.273,0 13.774,4.4 16.529,11.052 v 128.723 c -36.646,-3.768 -65.326,-34.818 -65.326,-72.442 z M 240,395.538 V 266.815 c 2.755,-6.652 9.257,-11.052 16.529,-11.052 h 21.283 c 10.487,0 20.093,-3.825 27.514,-10.142 v 77.476 c 0,37.624 -28.68,68.675 -65.326,72.441 z"
   id="path3" />
</g>
<g
   id="g4"
   transform="translate(-102.365)">
</g>
<g
   id="g5"
   transform="translate(-102.365)">
</g>
<g
   id="g6"
   transform="translate(-102.365)">
</g>
<g
   id="g7"
   transform="translate(-102.365)">
</g>
<g
   id="g8"
   transform="translate(-102.365)">
</g>
<g
   id="g9"
   transform="translate(-102.365)">
</g>
<g
   id="g10"
   transform="translate(-102.365)">
</g>
<g
   id="g11"
   transform="translate(-102.365)">
</g>
<g
   id="g12"
   transform="translate(-102.365)">
</g>
<g
   id="g13"
   transform="translate(-102.365)">
</g>
<g
   id="g14"
   transform="translate(-102.365)">
</g>
<g
   id="g15"
   transform="translate(-102.365)">
</g>
<g
   id="g16"
   transform="translate(-102.365)">
</g>
<g
   id="g17"
   transform="translate(-102.365)">
</g>
<g
   id="g18"
   transform="translate(-102.365)">
</g>
</svg>
