<?xml version="1.0" encoding="UTF-8" standalone="no"?>
<!-- Generator: Adobe Illustrator 19.0.0, SVG Export Plug-In . SVG Version: 6.00 Build 0)  -->

<svg
   version="1.1"
   id="Capa_1"
   x="0px"
   y="0px"
   viewBox="0 0 510.4 510.4"
   xml:space="preserve"
   sodipodi:docname="up-arrow_white.svg"
   width="510.39999"
   height="510.39999"
   inkscape:version="1.2.1 (9c6d41e410, 2022-07-14)"
   xmlns:inkscape="http://www.inkscape.org/namespaces/inkscape"
   xmlns:sodipodi="http://sodipodi.sourceforge.net/DTD/sodipodi-0.dtd"
   xmlns="http://www.w3.org/2000/svg"
   xmlns:svg="http://www.w3.org/2000/svg"><defs
   id="defs2817">
	

		
		
	</defs><sodipodi:namedview
   id="namedview2815"
   pagecolor="#ffffff"
   bordercolor="#000000"
   borderopacity="0.25"
   inkscape:showpageshadow="2"
   inkscape:pageopacity="0.0"
   inkscape:pagecheckerboard="0"
   inkscape:deskcolor="#d1d1d1"
   showgrid="false"
   inkscape:zoom="2.0942088"
   inkscape:cx="202.22434"
   inkscape:cy="241.14118"
   inkscape:window-width="3840"
   inkscape:window-height="2054"
   inkscape:window-x="2549"
   inkscape:window-y="-11"
   inkscape:window-maximized="1"
   inkscape:current-layer="Capa_1" />
<path
   d="m 255.2,500.4 c 135.2,0 245.2,-110 245.2,-245.2 C 500.4,120 390.4,10 255.2,10 120,10 10,120 10,255.2 10,390.4 120,500.4 255.2,500.4 Z m 0,-465.9 c 121.7,0 220.7,99 220.7,220.7 0,121.7 -99,220.7 -220.7,220.7 -121.7,0 -220.7,-99 -220.7,-220.7 0,-121.7 99,-220.7 220.7,-220.7 z"
   id="path2776"
   style="stroke:#ffffff;stroke-width:20;stroke-dasharray:none;stroke-opacity:1;fill:#ffffff;fill-opacity:1" /><path
   d="m 195,226.2 48,-48 v 183.4 c 0,6.8 5.5,12.3 12.3,12.3 6.8,0 12.3,-5.5 12.3,-12.3 V 178.3 l 48,48 c 2.4,2.4 5.5,3.6 8.7,3.6 3.2,0 6.3,-1.2 8.7,-3.6 4.8,-4.8 4.8,-12.5 0,-17.3 l -68.9,-68.9 c -4.8,-4.8 -12.5,-4.8 -17.3,0 L 177.9,209 c -4.8,4.8 -4.8,12.5 0,17.3 4.5,4.7 12.3,4.7 17.1,-0.1 z"
   id="path2778"
   style="stroke:#ffffff;stroke-width:20;stroke-dasharray:none;stroke-opacity:1;fill:#ffffff;fill-opacity:1" />















</svg>
